<svg width="320" height="320" viewBox="0 0 320 320" fill="none" xmlns="http://www.w3.org/2000/svg">
<rect x="21.1143" y="81.9231" width="162.48" height="274.119" rx="81.2401" transform="rotate(-30 21.1143 81.9231)" stroke="#EBB3FF"/>
<rect x="14.838" y="94.3248" width="162.48" height="274.119" rx="81.2401" transform="rotate(-35 14.838 94.3248)" stroke="#EBB3FF"/>
<rect x="9.66645" y="107.226" width="162.48" height="274.119" rx="81.2401" transform="rotate(-40 9.66645 107.226)" stroke="#EBB3FF"/>
<rect x="5.63905" y="120.53" width="162.48" height="274.119" rx="81.2401" transform="rotate(-45 5.63905 120.53)" stroke="#EBB3FF"/>
<rect x="2.78633" y="134.133" width="162.48" height="274.119" rx="81.2401" transform="rotate(-50 2.78633 134.133)" stroke="#EBB3FF"/>
<rect x="1.13002" y="147.934" width="162.48" height="274.119" rx="81.2401" transform="rotate(-55 1.13002 147.934)" stroke="#EBB3FF"/>
<rect x="0.683013" y="161.826" width="162.48" height="274.119" rx="81.2401" transform="rotate(-60 0.683013 161.826)" stroke="#EBB3FF"/>
<rect x="78" y="23" width="163.042" height="274.598" rx="81.5211" fill="black"/>
<rect x="175.705" y="318.552" width="162.48" height="274.119" rx="81.2401" transform="rotate(-155 175.705 318.552)" stroke="#A7FED9"/>
<rect x="189.464" y="316.579" width="162.48" height="274.119" rx="81.2401" transform="rotate(-160 189.464 316.579)" stroke="#A7FED9"/>
<rect x="202.998" y="313.416" width="162.48" height="274.119" rx="81.2401" transform="rotate(-165 202.998 313.416)" stroke="#A7FED9"/>
<rect x="216.206" y="309.084" width="162.48" height="274.119" rx="81.2401" transform="rotate(-170 216.206 309.084)" stroke="#A7FED9"/>
<rect x="228.985" y="303.618" width="162.48" height="274.119" rx="81.2401" transform="rotate(-175 228.985 303.618)" stroke="#A7FED9"/>
<rect x="241.24" y="297.059" width="162.48" height="274.119" rx="81.2401" transform="rotate(-180 241.24 297.059)" stroke="#A7FED9"/>
</svg>
