<svg width="189" height="127" viewBox="0 0 189 127" fill="none" xmlns="http://www.w3.org/2000/svg">
<path d="M0.903198 13.1936C0.903198 -16.7367 25.1665 -41 55.0967 -41C85.027 -41 109.29 -16.7367 109.29 13.1936V67.3871H55.0967C25.1664 67.3871 0.903198 43.1238 0.903198 13.1936Z" fill="#A7FED9"/>
<path d="M196 31.2581C196 11.3045 179.824 -4.87097 159.871 -4.87097C139.917 -4.87097 123.742 11.3045 123.742 31.2581V67.3871H159.871C179.824 67.3871 196 51.2116 196 31.2581Z" fill="#EBB3FF"/>
<path d="M67.742 106.226C67.742 117.699 77.0429 127 88.5162 127C99.9895 127 109.29 117.699 109.29 106.226V85.4516H88.5162C77.0429 85.4516 67.742 94.7525 67.742 106.226Z" fill="black"/>
</svg>
